<svg width="45" height="49" viewBox="0 0 45 49" fill="none" xmlns="http://www.w3.org/2000/svg">
<path d="M21.2137 6.37202C22.0802 5.40442 23.1145 4.6338 24.2567 4.10486C25.3988 3.57592 26.626 3.2992 27.8671 3.29073C29.1082 3.28226 30.3386 3.54222 31.4867 4.05554C32.6348 4.56885 33.6779 5.32529 34.5555 6.28099C35.433 7.23669 36.1276 8.37261 36.5988 9.62287C37.0701 10.8731 37.3086 12.2128 37.3007 13.5643C37.2927 14.9157 37.0384 16.252 36.5525 17.4955C36.0666 18.7391 35.3587 19.8653 34.47 20.8086L19.8881 36.6887C19.3674 37.2652 18.7471 37.7236 18.0628 38.0377C17.3786 38.3517 16.644 38.5152 15.9015 38.5186C15.1589 38.522 14.4231 38.3652 13.7365 38.0574C13.0499 37.7496 12.426 37.2968 11.9009 36.7252C11.3758 36.1535 10.9598 35.4743 10.677 34.7267C10.3941 33.9791 10.25 33.1779 10.253 32.3694C10.2559 31.5609 10.4058 30.761 10.6941 30.0158C10.9823 29.2707 11.4032 28.5951 11.9325 28.028L26.5162 12.1479L29.1675 15.0348L14.5837 30.9149C14.4047 31.1032 14.2618 31.3285 14.1635 31.5776C14.0653 31.8267 14.0136 32.0946 14.0114 32.3657C14.0092 32.6368 14.0567 32.9056 14.1509 33.1565C14.2452 33.4075 14.3844 33.6354 14.5605 33.8271C14.7365 34.0188 14.9459 34.1704 15.1763 34.2731C15.4068 34.3757 15.6537 34.4274 15.9026 34.425C16.1516 34.4227 16.3976 34.3664 16.6264 34.2593C16.8551 34.1523 17.062 33.9968 17.235 33.8018L31.8206 17.9217C32.343 17.3529 32.7574 16.6776 33.0401 15.9345C33.3228 15.1913 33.4683 14.3947 33.4683 13.5903C33.4683 12.7859 33.3228 11.9894 33.0401 11.2462C32.7574 10.503 32.343 9.82774 31.8206 9.25893C31.2982 8.69013 30.6781 8.23892 29.9956 7.93109C29.3131 7.62325 28.5815 7.46481 27.8428 7.46481C27.104 7.46481 26.3725 7.62325 25.69 7.93109C25.0075 8.23892 24.3874 8.69013 23.865 9.25893L9.28124 25.1411C7.5735 27.0664 6.62856 29.645 6.64992 32.3216C6.67128 34.9982 7.65724 37.5586 9.39544 39.4513C11.1336 41.344 13.485 42.4176 15.9431 42.4409C18.4012 42.4641 20.7693 41.4352 22.5375 39.5756L38.4487 22.2521L41.1 25.1411L25.1906 42.4646C22.7291 45.1449 19.3905 46.6507 15.9094 46.6507C12.4282 46.6507 9.08965 45.1449 6.62811 42.4646C4.16657 39.7843 2.78369 36.1489 2.78369 32.3584C2.78369 28.5678 4.16657 24.9324 6.62811 22.2521L21.2137 6.37202Z" fill="#4A4A4A" fill-opacity="0.51"/>
</svg>
