<svg width="42" height="42" viewBox="0 0 42 42" fill="none" xmlns="http://www.w3.org/2000/svg">
<g clip-path="url(#clip0_900_4553)">
<path d="M4.2 7V5.6C3.87647 5.6002 3.56299 5.71244 3.31287 5.91764C3.06275 6.12285 2.89141 6.40835 2.828 6.7256L4.2 7ZM37.8 7L39.172 6.7256C39.1086 6.40835 38.9373 6.12285 38.6871 5.91764C38.437 5.71244 38.1235 5.6002 37.8 5.6V7ZM40.6 21V22.4C40.807 22.3999 41.0115 22.3538 41.1986 22.2652C41.3857 22.1765 41.5508 22.0475 41.682 21.8873C41.8133 21.7272 41.9073 21.5399 41.9575 21.339C42.0076 21.1381 42.0126 20.9286 41.972 20.7256L40.6 21ZM1.4 21L0.028 20.7256C-0.0125814 20.9286 -0.00762431 21.1381 0.0425141 21.339C0.0926525 21.5399 0.186724 21.7272 0.317951 21.8873C0.449178 22.0475 0.614293 22.1765 0.801402 22.2652C0.98851 22.3538 1.19295 22.3999 1.4 22.4V21ZM9.8 29.4H8.4V30.8H9.8V29.4ZM32.2 29.4V30.8H33.6V29.4H32.2ZM0 42H42V39.2H0V42ZM2.8 21V40.6H5.6V21H2.8ZM36.4 21V40.6H39.2V21H36.4ZM4.2 8.4H37.8V5.6H4.2V8.4ZM36.428 7.2744L39.228 21.2744L41.972 20.7256L39.172 6.7256L36.428 7.2744ZM40.6 19.6H1.4V22.4H40.6V19.6ZM2.772 21.2744L5.572 7.2744L2.828 6.7256L0.028 20.7256L2.772 21.2744ZM2.8 2.8H39.2V0H2.8V2.8ZM8.4 21V29.4H11.2V21H8.4ZM9.8 30.8H32.2V28H9.8V30.8ZM33.6 29.4V21H30.8V29.4H33.6Z" fill="#0C4B6E"/>
</g>
<defs>
<clipPath id="clip0_900_4553">
<rect width="42" height="42" fill="white"/>
</clipPath>
</defs>
</svg>
